<svg width="200" height="197" viewBox="0 0 200 197" fill="none" xmlns="http://www.w3.org/2000/svg">
<path d="M198.4 100.706L184.4 106.506C182.6 107.206 182.3 109.606 183.9 110.806L196.1 119.706C197.9 121.006 197.2 123.806 195 124.106L180 126.306C178.1 126.606 177.2 128.806 178.5 130.306L188.2 141.806C189.6 143.506 188.3 146.006 186.1 145.806L171 144.406C169.1 144.206 167.7 146.206 168.5 147.906L175.1 161.406C176.1 163.406 174.1 165.506 172.1 164.806L157.8 159.906C156 159.306 154.1 160.906 154.6 162.806L157.8 177.506C158.3 179.606 155.9 181.306 154 180.106L141.3 171.906C139.7 170.906 137.5 172.006 137.5 173.906L137.1 188.906C137 191.106 134.3 192.106 132.8 190.506L122.4 179.506C121.1 178.106 118.7 178.706 118.2 180.506L114.1 195.006C113.5 197.106 110.6 197.506 109.5 195.506L102.1 182.406C101.2 180.706 98.7 180.706 97.8 182.406L90.4 195.506C89.3 197.406 86.4 197.106 85.8 195.006L81.7 180.506C81.2 178.606 78.8 178.106 77.5 179.506L67.1 190.506C65.6 192.106 62.9 191.106 62.8 188.906L62.4 173.906C62.3 172.006 60.2 170.906 58.6 171.906L45.9 180.206C44 181.406 41.7 179.806 42.1 177.606L45.3 162.906C45.7 161.006 43.9 159.406 42.1 160.006L27.8 164.906C25.7 165.606 23.8 163.506 24.8 161.506L31.4 148.006C32.2 146.306 30.9 144.306 28.9 144.506L13.8 145.906C11.6 146.106 10.2 143.606 11.7 141.906L21.4 130.406C22.6 128.906 21.8 126.706 19.9 126.406L4.9 124.206C2.7 123.906 2 121.106 3.8 119.806L16 110.906C17.6 109.806 17.3 107.406 15.5 106.606L1.5 100.906C-0.5 100.106 -0.5 97.2059 1.5 96.3059L15.5 90.6059C17.3 89.9059 17.6 87.5059 16 86.3059L3.8 77.4059C2 76.1059 2.7 73.3059 4.9 73.0059L19.9 70.8059C21.8 70.5059 22.7 68.3059 21.4 66.8059L11.6 55.0059C10.2 53.3059 11.5 50.8059 13.7 51.0059L28.9 52.4059C30.8 52.6059 32.2 50.6059 31.4 48.9059L24.8 35.4059C23.8 33.4059 25.8 31.3059 27.8 32.0059L42.1 36.9059C43.9 37.5059 45.8 35.9059 45.3 34.0059L42.1 19.3059C41.6 17.1059 44 15.5059 45.9 16.7059L58.6 24.9059C60.2 25.9059 62.4 24.8059 62.4 22.9059L62.8 7.90591C62.9 5.70591 65.6 4.70591 67.1 6.30591L77.5 17.3059C78.8 18.7059 81.2 18.1059 81.7 16.3059L85.8 1.80591C86.4 -0.294093 89.3 -0.694093 90.4 1.30591L97.8 14.4059C98.7 16.1059 101.2 16.1059 102.1 14.4059L109.5 1.30591C110.6 -0.594093 113.5 -0.294093 114.1 1.80591L118.2 16.3059C118.7 18.2059 121.1 18.7059 122.4 17.3059L132.8 6.30591C134.3 4.70591 137 5.70591 137.1 7.90591L137.5 22.9059C137.6 24.8059 139.7 25.9059 141.3 24.9059L154 16.7059C155.9 15.5059 158.2 17.1059 157.8 19.3059L154.5 34.0059C154.1 35.9059 155.9 37.5059 157.7 36.9059L172 32.0059C174.1 31.3059 176 33.4059 175 35.4059L168.4 48.9059C167.6 50.6059 168.9 52.6059 170.9 52.4059L186 51.0059C188.2 50.8059 189.6 53.3059 188.1 55.0059L178.4 66.5059C177.2 68.0059 178 70.2059 179.9 70.5059L194.9 72.7059C197.1 73.0059 197.8 75.8059 196 77.1059L183.8 86.0059C182.2 87.1059 182.5 89.5059 184.3 90.3059L198.3 96.0059C200.4 97.0059 200.4 99.9059 198.4 100.706Z" fill="white"/>
</svg>
