<svg width="192" height="221" viewBox="0 0 192 221" fill="none" xmlns="http://www.w3.org/2000/svg">
<path d="M59.4004 195.5H72.6004V196.6C72.6004 209.6 83.2004 220.3 96.3004 220.3C109.3 220.3 120 209.7 120 196.6V195.5H133.2V166.7H59.4004V195.5Z" fill="#3286DB"/>
<path d="M89.8007 131.4L72.3007 120.1V100.7H85.2007V113.1L96.3007 120.2L107.401 113.1V100.7H120.301V120.1L102.801 131.4V153.8H134.101C135.201 149.9 137.401 146.4 140.401 143.6C153.701 131.3 161.401 113.9 161.401 95.8002C161.401 59.9002 132.201 30.7002 96.3007 30.7002H95.8007C78.7007 30.8002 62.5007 37.6002 50.4007 49.8002C38.2007 62.0002 31.4007 78.1002 31.3007 95.2002C31.1007 113.5 38.7007 131.1 52.1007 143.5C55.2007 146.4 57.4007 150 58.6007 153.9H89.8007V131.4Z" fill="#3286DB"/>
<path d="M89.3008 0H102.201V17.4H89.3008V0Z" fill="#3286DB"/>
<path d="M42.3008 16.0996L53.5008 9.59961L62.2008 24.6996L51.0008 31.1996L42.3008 16.0996Z" fill="#3286DB"/>
<path d="M9.59961 53.4998L16.0996 42.2998L31.1996 50.9998L24.6996 62.1998L9.59961 53.4998Z" fill="#3286DB"/>
<path d="M0 89.2998H17.5V102.3H0V89.2998Z" fill="#3286DB"/>
<path d="M174.1 89.2998H191.6V102.3H174.1V89.2998Z" fill="#3286DB"/>
<path d="M160.4 51.1004L175.5 42.4004L182 53.6004L166.8 62.2004L160.4 51.1004Z" fill="#3286DB"/>
<path d="M129.4 24.8002L138.1 9.7002L149.3 16.2002L140.6 31.3002L129.4 24.8002Z" fill="#3286DB"/>
</svg>
