<svg width="201" height="201" viewBox="0 0 201 201" fill="none" xmlns="http://www.w3.org/2000/svg">
<path d="M105.2 96.9998C105.2 96.9998 105.2 96.8998 105.1 96.8998L71.6998 63.4998V42.4998C71.6998 40.8998 71.0998 39.4998 69.9998 38.3998L34.7998 2.69979C33.0998 0.999794 30.5998 0.499795 28.3998 1.39979C26.1998 2.29979 24.7998 4.39979 24.7998 6.79979V24.3998H6.79979C4.39979 24.3998 2.29979 25.7998 1.39979 27.9998C0.499794 30.1998 0.999795 32.6998 2.6998 34.3998L38.2998 69.9998C39.3998 71.0998 40.8998 71.6998 42.3998 71.6998H63.3998L96.7998 105.1C96.7998 105.1 96.8998 105.1 96.8998 105.2C99.1998 107.4 102.6 107.4 105 105.2C107.5 102.9 107.4 99.2998 105.2 96.9998Z" fill="#3286DB"/>
<path d="M101 1C86 1 71.8 4.8 59.1 10.8L77.1 28.8C84.6 26.3 92.7 24.9 101.1 24.9C143.1 24.9 177.3 59.1 177.3 101.1C177.3 143.1 143 177.2 101 177.2C59 177.2 24.8 143 24.8 101C24.8 92.6 26.2 84.6 28.7 77L10.7 59C4.8 71.8 1 86 1 101C1 155.9 46.1 201 101 201C155.9 201 201 155.9 201 101C201 46.1 155.9 1 101 1Z" fill="#3286DB"/>
<path d="M100.999 48.2998C94.7988 48.2998 88.8988 49.5998 83.3988 51.4998V58.5998L96.8988 72.0998C98.1988 71.8998 99.5988 71.6998 100.899 71.6998C117.099 71.6998 130.199 84.7998 130.199 101C130.199 117.2 117.099 130.3 100.899 130.3C84.6988 130.3 71.6988 117.2 71.6988 101C71.6988 99.5998 71.8988 98.2998 72.0988 96.9998L58.5988 83.4998H51.4988C49.4988 88.9998 48.2988 94.8998 48.2988 101.1C48.2988 130.2 71.9988 153.8 100.999 153.8C129.999 153.8 153.699 130.1 153.699 101.1C153.699 72.0998 130.099 48.2998 100.999 48.2998Z" fill="#3286DB"/>
</svg>
