<svg width="244" height="183" viewBox="0 0 244 183" fill="none" xmlns="http://www.w3.org/2000/svg">
<path d="M218.5 61C212.3 61 203.7 63.7 196.1 67.9C197.7 48.4 200.7 29.9 203 17.9C203.8 13.5 202.7 9 199.8 5.6C196.8 2 192.4 0 187.7 0H143.6C139.9 0 136.5 2 134.7 5.3C132.9 8.6 133.1 12.5 135.1 15.7C139.8 23 142.3 31.2 142.3 35.6C142.3 44 133.2 50.9 122 50.9C110.8 50.9 101.7 44.1 101.7 35.6C101.7 31.2 104.2 23 108.9 15.7C110.9 12.6 111.1 8.6 109.3 5.3C107.5 2.1 104.1 0 100.4 0H56.2C51.5 0 47.1 2.1 44.1 5.6C41.2 9.1 40.1 13.5 40.9 17.9C43.2 29.9 46.2 48.4 47.8 67.9C40.1 63.6 31.5 60.9 25.4 60.9C11.4 60.9 0 74.6 0 91.4C0 108.2 11.4 121.9 25.4 121.9C31.6 121.9 40.2 119.2 47.8 115C46.2 134.5 43.2 153 40.9 165C40.1 169.4 41.2 173.9 44.1 177.3C47.1 180.9 51.5 182.9 56.2 182.9H100.3C104 182.9 107.4 180.9 109.2 177.6C111 174.3 110.8 170.4 108.8 167.2C104.1 159.9 101.6 151.7 101.6 147.3C101.6 138.9 110.7 132 121.9 132C133.1 132 142.2 138.8 142.2 147.3C142.2 151.7 139.7 159.9 135 167.2C133 170.3 132.8 174.3 134.6 177.6C136.4 180.8 139.8 182.9 143.5 182.9H187.6C192.3 182.9 196.7 180.8 199.7 177.3C202.6 173.8 203.7 169.4 202.9 165C200.6 153 197.6 134.5 196 115C203.7 119.3 212.3 122 218.4 122C232.4 122 243.8 108.3 243.8 91.5C243.8 74.7 232.6 61 218.5 61Z" fill="white"/>
</svg>
