<svg width="512" height="512" viewBox="0 0 512 512" fill="none" xmlns="http://www.w3.org/2000/svg">
<rect width="512" height="512" rx="256" fill="white"/>
<path d="M15.0701 318.706C14.3858 316.317 14.3858 314.098 14.899 311.879C15.4122 309.659 16.4386 307.782 18.0637 306.16C19.6033 304.538 21.5706 303.429 23.8799 302.831C27.3868 301.893 30.637 302.234 33.5451 304.026C36.5388 305.733 38.506 308.465 39.5324 312.049L41.5852 319.645L54.1585 316.231L55.8691 322.291L18.8335 332.362L15.0701 318.706ZM33.8017 313.927C33.5451 312.988 33.1175 312.049 32.6043 311.366C32.0911 310.598 31.4068 310.001 30.7225 309.574C30.0383 309.147 29.183 308.891 28.3276 308.721C27.3868 308.635 26.5314 308.721 25.5906 308.977C24.3931 309.318 23.3667 309.916 22.5114 310.769C21.7416 311.622 21.1429 312.647 20.8863 313.756C20.6297 314.951 20.6297 316.146 20.9718 317.426L22.9391 324.681L35.8545 321.182L33.8017 313.927Z" fill="black"/>
<path d="M45.861 257.34C45.9465 263.144 44.0648 268.009 40.3014 271.85C36.5379 275.69 31.8336 277.653 26.103 277.739C20.3723 277.824 15.668 275.946 11.819 272.106C7.97004 268.35 6.08832 263.485 6.00279 257.682C5.91726 251.878 7.79897 247.013 11.5624 243.172C15.3258 239.332 20.0301 237.369 25.7608 237.283C29.5243 237.283 32.86 238.051 35.9392 239.758C39.0184 241.465 41.4133 243.855 43.1239 246.928C44.9201 250 45.861 253.5 45.861 257.34ZM35.9392 267.241C38.5907 264.595 39.8737 261.266 39.7882 257.34C39.7882 253.414 38.4196 250.086 35.6826 247.525C33.0311 244.965 29.6953 243.684 25.7608 243.684C21.8263 243.684 18.4905 245.05 15.9246 247.696C13.2731 250.342 11.9901 253.585 12.0756 257.596C12.0756 261.522 13.4441 264.851 16.1812 267.412C18.8327 269.972 22.1685 271.252 26.103 271.252C30.0375 271.252 33.3732 269.887 35.9392 267.241Z" fill="black"/>
<path d="M52.1049 204.168C51.4206 206.984 50.3087 209.289 48.7691 211.167C47.2295 213.044 45.4333 214.324 43.295 215.007C41.1567 215.69 38.8473 215.775 36.3669 215.093L37.9065 208.947C39.8737 209.46 41.6699 209.118 43.2095 207.923C44.7491 206.728 45.7755 205.021 46.3742 202.802C46.8874 200.754 46.8018 198.876 46.2031 197.255C45.5189 195.633 44.4069 194.523 42.7818 194.182C42.1831 194.011 41.5844 194.011 41.0712 194.097C40.558 194.182 40.0448 194.353 39.5316 194.694C39.1039 195.035 38.6762 195.377 38.2486 195.718C37.9065 196.06 37.4788 196.572 37.0511 197.34C36.6235 198.108 36.2813 198.706 36.0247 199.132C35.7681 199.559 35.426 200.327 34.9128 201.266C34.3996 202.29 33.972 203.058 33.7154 203.57C33.3732 204.083 32.9456 204.851 32.3468 205.704C31.7481 206.643 31.2349 207.326 30.8073 207.838C30.3796 208.265 29.7809 208.862 29.0111 209.46C28.2413 210.057 27.557 210.484 26.7872 210.654C26.103 210.91 25.2476 210.996 24.3068 211.081C23.3659 211.167 22.3395 210.996 21.2276 210.74C17.8918 209.886 15.5824 208.094 14.2995 205.277C13.0165 202.461 12.8454 199.047 13.8718 195.121C14.8982 191.109 16.6944 188.208 19.3459 186.415C21.9974 184.623 24.991 184.196 28.4979 185.135L26.9583 191.195C25.1621 190.768 23.6225 191.024 22.3395 192.048C20.971 193.072 20.1157 194.609 19.6025 196.657C19.0893 198.62 19.0893 200.327 19.6025 201.863C20.1157 203.4 21.1421 204.253 22.5961 204.68C23.2804 204.851 23.8791 204.851 24.4778 204.68C25.0766 204.509 25.5898 204.253 26.103 203.912C26.5306 203.57 27.0438 203.058 27.557 202.29C28.0702 201.522 28.4979 200.839 28.84 200.327C29.1821 199.815 29.6098 198.962 30.123 197.937C30.5507 197.084 30.8928 196.486 31.0638 196.06C31.3204 195.633 31.6626 195.035 32.0902 194.267C32.6034 193.499 32.9456 192.902 33.2877 192.475C33.6298 192.048 34.0575 191.536 34.5707 190.939C35.0839 190.341 35.5971 189.829 36.0247 189.573C36.4524 189.317 37.0511 188.976 37.6499 188.634C38.3341 188.293 38.9328 188.037 39.6171 187.952C40.3014 187.866 40.9856 187.781 41.841 187.781C42.6107 187.781 43.4661 187.866 44.3214 188.122C47.9138 189.061 50.3942 191.024 51.7627 194.011C52.8747 196.828 53.1313 200.242 52.1049 204.168Z" fill="black"/>
<path d="M40.0446 131.023L43.0383 125.476L76.9092 143.399L73.9155 148.947L59.1184 141.18L50.9073 156.628L65.7044 164.48L62.7108 170.028L28.8398 152.105L31.8335 146.557L45.6898 153.897L53.9009 138.449L40.0446 131.023Z" fill="black"/>
<path d="M86.832 113.185C85.8056 114.38 84.5226 115.063 82.983 115.234C81.4435 115.404 80.0749 114.892 78.7919 113.868C77.509 112.844 76.8247 111.564 76.7392 110.027C76.6536 108.491 77.0813 107.125 78.1077 105.931C79.1341 104.65 80.4171 103.968 81.9566 103.882C83.4962 103.712 84.8648 104.224 86.1477 105.248C87.3452 106.272 88.0295 107.552 88.2005 109.089C88.2861 110.539 87.8584 111.905 86.832 113.185Z" fill="black"/>
<path d="M111.891 59.2446L99.5747 69.2305L106.417 77.5947L117.622 68.5477L121.3 72.9859L110.095 82.0329L120.103 94.3232L115.227 98.3346L91.0215 68.633L108.214 54.6357L111.891 59.2446Z" fill="black"/>
<path d="M190.582 53.953L184.765 56.5988L169.198 33.2131L169.113 63L167.659 63.6828L145.078 44.1378L152.434 71.1935L146.618 73.8394L136.439 36.371L142.085 33.8105L163.468 52.7581L163.382 24.2514L169.113 21.6909L190.582 53.953Z" fill="black"/>
<path d="M228.216 47.4663C222.571 48.2344 217.695 47.0395 213.419 43.8816C209.228 40.7237 206.662 36.2855 205.892 30.5671C205.122 24.8487 206.32 19.9838 209.484 15.7163C212.649 11.5342 217.097 8.97372 222.656 8.20558C225.65 7.77883 228.473 8.03488 231.124 8.80302C233.776 9.57117 236.17 10.9368 238.138 12.8144C240.19 14.6921 241.645 16.9966 242.756 19.7277L236.427 20.5812C235.144 18.1915 233.433 16.3991 231.124 15.2896C228.815 14.18 226.249 13.7533 223.426 14.18C219.663 14.6921 216.669 16.3991 214.531 19.301C212.392 22.2029 211.623 25.6168 212.136 29.6283C212.649 33.5543 214.36 36.6269 217.268 38.846C220.09 41.0651 223.426 41.9186 227.275 41.4065C230.183 40.9797 232.578 39.8702 234.46 38.0779C236.427 36.2855 237.625 33.9811 238.052 31.1646L244.382 30.3111C244.039 34.9199 242.329 38.7606 239.421 41.8332C236.598 44.9912 232.835 46.7835 228.216 47.4663Z" fill="black"/>
<path d="M286.207 27.5798L306.478 30.3963C305.623 36.2001 303.143 40.7236 299.037 43.9669C294.932 47.2101 290.142 48.4904 284.582 47.7222C278.937 46.9541 274.575 44.4789 271.41 40.2115C268.245 35.944 267.048 30.9937 267.818 25.3607C268.588 19.7276 271.068 15.2895 275.259 12.0462C279.45 8.80291 284.325 7.60802 289.885 8.37617C294.504 8.97361 298.438 10.8513 301.518 14.0092C304.682 17.0818 306.393 20.7518 306.65 25.0193L300.149 24.1658C299.721 21.6053 298.438 19.4716 296.386 17.6792C294.333 15.8869 291.938 14.8627 289.03 14.436C286.464 14.0946 284.154 14.3506 282.016 15.2041C279.878 16.0576 278.082 17.4232 276.713 19.3862C275.259 21.3493 274.404 23.5684 274.062 26.2142C273.548 30.2256 274.233 33.7249 276.371 36.5415C278.424 39.358 281.417 41.1503 285.352 41.6624C288.346 42.0892 291.083 41.6624 293.563 40.3822C296.043 39.1019 297.84 37.2242 298.866 34.8345L285.352 32.9568L286.207 27.5798Z" fill="black"/>
<path d="M333.849 48.832C332.309 48.2345 331.283 47.2957 330.599 45.8447C329.914 44.4792 329.914 42.9429 330.513 41.4919C331.112 39.9556 332.053 38.8461 333.507 38.2487C334.875 37.6512 336.329 37.5659 337.869 38.1633C339.408 38.7607 340.52 39.6996 341.119 41.0652C341.718 42.4308 341.803 43.8817 341.205 45.418C340.606 46.9543 339.665 47.9785 338.297 48.6613C336.843 49.4294 335.388 49.4294 333.849 48.832Z" fill="black"/>
<path d="M389.531 45.5886C391.583 46.8689 393.208 48.4905 394.32 50.4535C395.432 52.4166 395.945 54.5503 395.86 56.7694C395.774 58.9885 395.176 61.1222 393.893 63.1706C392.011 66.2432 389.359 68.1209 385.938 68.889C382.517 69.6571 379.267 68.9743 376.102 67.0113L369.43 62.8292L362.502 73.9246L357.199 70.596L377.47 38.0779L389.531 45.5886ZM379.01 61.805C379.865 62.3171 380.721 62.6585 381.662 62.9145C382.602 63.0852 383.458 63.0852 384.228 62.9145C385.083 62.7438 385.853 62.4024 386.622 61.8903C387.392 61.3783 387.991 60.6955 388.504 59.9273C389.188 58.8178 389.531 57.7082 389.531 56.5133C389.531 55.3184 389.274 54.2089 388.675 53.1847C388.076 52.1605 387.221 51.2217 386.024 50.5389L379.609 46.5275L372.51 57.8789L379.01 61.805Z" fill="black"/>
<path d="M413.566 115.234L417.073 107.04L405.013 94.9205L396.802 98.5052L392.098 93.811L430.16 77.6799L434.351 81.8621L418.356 120.013L413.566 115.234ZM426.396 85.5321L410.573 92.5307L419.554 101.492L426.396 85.5321Z" fill="black"/>
<path d="M437.428 149.886C434.606 145.021 433.836 139.985 435.119 134.864C436.488 129.743 439.567 125.732 444.528 122.83C449.488 119.928 454.535 119.16 459.667 120.525C464.799 121.891 468.819 124.964 471.641 129.828C473.181 132.389 474.036 135.12 474.378 137.851C474.635 140.668 474.293 143.314 473.352 145.874C472.326 148.435 470.786 150.739 468.648 152.787L465.398 147.325C467.108 145.277 468.135 142.887 468.306 140.412C468.477 137.851 467.878 135.376 466.424 132.901C464.457 129.572 461.72 127.524 458.213 126.671C454.706 125.817 451.199 126.414 447.778 128.377C444.357 130.426 442.133 133.157 441.192 136.656C440.251 140.156 440.764 143.484 442.646 146.813C444.1 149.288 446.067 151.08 448.548 152.19C450.942 153.3 453.594 153.47 456.331 152.873L459.581 158.42C455.219 159.786 451.028 159.786 447.008 158.25C442.988 156.628 439.823 153.897 437.428 149.886Z" fill="black"/>
<path d="M461.293 207.496L474.209 191.365L473.011 187.098L456.845 191.707L455.135 185.647L491.999 175.149L493.71 181.209L478.656 185.476L479.854 189.744L497.901 195.974L500.039 203.4L478.656 195.889L463.517 215.007L461.293 207.496Z" fill="black"/>
<path d="M466.852 262.035L475.063 258.535L474.635 241.465L466.253 238.393L466.082 231.736L504.828 246.245L504.999 252.134L467.023 268.863L466.852 262.035ZM496.617 249.403L480.28 243.514L480.537 256.231L496.617 249.403Z" fill="black"/>
<path d="M480.111 307.014L475.407 326.9C469.676 325.449 465.399 322.547 462.577 318.194C459.754 313.842 458.984 308.891 460.267 303.514C461.55 298.052 464.459 293.87 468.992 291.139C473.525 288.407 478.571 287.639 484.131 289.005C489.691 290.285 493.882 293.187 496.619 297.625C499.441 302.063 500.211 307.014 498.928 312.476C497.816 317 495.592 320.67 492.257 323.571C488.835 326.388 485.072 327.754 480.795 327.668L482.335 321.352C484.901 321.096 487.125 320.072 489.092 318.28C491.059 316.402 492.342 314.098 493.026 311.281C493.625 308.806 493.625 306.416 492.941 304.197C492.257 301.978 491.059 300.1 489.263 298.479C487.467 296.857 485.328 295.833 482.677 295.15C478.657 294.211 475.15 294.638 472.156 296.43C469.077 298.223 467.11 301.039 466.255 304.88C465.57 307.867 465.741 310.598 466.768 313.244C467.794 315.805 469.505 317.768 471.814 319.048L474.979 305.819L480.111 307.014Z" fill="black"/>
<path d="M447.436 342.69L482.077 359.162L479.34 364.795L444.699 348.323L447.436 342.69Z" fill="black"/>
<path d="M448.377 413.188L444.613 418.138L414.078 395.009L417.328 390.827L451.199 391.509L429.388 374.952L433.152 370.001L463.687 393.131L460.266 397.655L426.994 396.887L448.377 413.188Z" fill="black"/>
<path d="M396.289 437.257L379.952 449.633C376.445 444.938 374.991 439.988 375.59 434.782C376.189 429.576 378.669 425.308 383.117 421.894C387.65 418.48 392.525 417.115 397.743 417.883C402.96 418.651 407.323 421.211 410.829 425.82C414.251 430.344 415.705 435.209 415.02 440.415C414.336 445.621 411.77 449.974 407.323 453.303C403.645 456.119 399.539 457.57 395.091 457.57C390.644 457.57 386.88 456.205 383.63 453.473L388.848 449.547C390.986 450.998 393.381 451.681 396.032 451.425C398.684 451.169 401.164 450.315 403.474 448.523C405.526 446.987 406.98 445.109 407.836 442.975C408.777 440.842 409.033 438.623 408.606 436.233C408.263 433.843 407.237 431.624 405.612 429.49C403.131 426.247 400.138 424.369 396.631 423.772C393.124 423.26 389.788 424.113 386.709 426.503C384.314 428.381 382.689 430.6 381.834 433.246C380.979 435.891 381.064 438.452 382.09 440.927L392.953 432.648L396.289 437.257Z" fill="black"/>
<path d="M347.62 455.863C349.074 455.18 350.528 455.18 351.982 455.692C353.436 456.204 354.463 457.228 355.147 458.679C355.831 460.216 355.917 461.667 355.318 463.118C354.805 464.569 353.778 465.593 352.324 466.276C350.785 466.958 349.331 467.044 347.962 466.532C346.508 466.019 345.482 464.995 344.797 463.459C344.113 462.008 344.028 460.557 344.541 459.106C345.14 457.655 346.08 456.546 347.62 455.863Z" fill="black"/>
<path d="M310.84 497.684C305.366 498.879 300.405 498.111 296.043 495.38C291.681 492.649 288.858 488.552 287.661 483.175C286.464 477.798 287.319 472.933 290.056 468.58C292.793 464.227 296.984 461.496 302.544 460.301L315.801 457.399L324.012 494.782L310.84 497.684ZM303.998 465.934C300.234 466.788 297.412 468.666 295.616 471.653C293.734 474.64 293.221 477.969 294.076 481.724C294.504 483.602 295.188 485.309 296.214 486.76C297.155 488.211 298.353 489.405 299.721 490.344C301.09 491.198 302.629 491.795 304.425 492.137C306.136 492.393 308.018 492.393 309.814 491.966L316.742 490.43L311.011 464.483L303.998 465.934Z" fill="black"/>
<path d="M255.415 471.567L238.822 471.226L238.907 465.251L261.83 465.764L261.06 504L238.736 503.488L238.822 497.599L254.816 497.94L254.988 487.954L240.361 487.613L240.447 481.809L255.073 482.151L255.415 471.567Z" fill="black"/>
<path d="M205.636 458.765C208.458 459.448 210.768 460.557 212.65 462.093C214.531 463.63 215.814 465.422 216.498 467.556C217.183 469.69 217.268 471.994 216.67 474.469L210.511 472.933C211.024 470.97 210.682 469.177 209.485 467.726C208.287 466.19 206.577 465.166 204.267 464.569C202.215 464.056 200.333 464.142 198.708 464.825C197.083 465.507 196.056 466.617 195.629 468.239C195.457 468.836 195.457 469.433 195.543 469.946C195.629 470.458 195.8 470.97 196.227 471.482C196.569 471.909 196.912 472.335 197.254 472.762C197.596 473.104 198.109 473.53 198.879 473.957C199.649 474.384 200.247 474.725 200.675 474.981C201.188 475.237 201.872 475.579 202.813 476.091C203.84 476.603 204.609 477.03 205.123 477.286C205.636 477.627 206.406 478.054 207.346 478.651C208.287 479.249 208.972 479.761 209.485 480.188C209.998 480.614 210.511 481.212 211.11 481.98C211.709 482.663 212.136 483.431 212.393 484.114C212.65 484.796 212.735 485.65 212.821 486.589C212.906 487.528 212.821 488.552 212.478 489.661C211.623 492.99 209.827 495.294 207.004 496.575C204.182 497.855 200.76 498.026 196.826 497.087C192.806 496.062 189.898 494.27 188.102 491.71C186.305 489.149 185.878 486.077 186.733 482.577L192.806 484.028C192.378 485.821 192.635 487.357 193.747 488.722C194.773 490.003 196.313 490.942 198.366 491.454C200.333 491.966 202.043 491.88 203.583 491.368C205.123 490.856 205.978 489.832 206.406 488.381C206.577 487.698 206.577 487.101 206.32 486.503C206.149 485.906 205.892 485.394 205.55 484.967C205.208 484.54 204.695 484.028 203.84 483.516C203.07 483.004 202.386 482.577 201.872 482.236C201.359 481.98 200.504 481.468 199.478 480.956C198.622 480.529 198.023 480.188 197.596 480.017C197.168 479.761 196.569 479.419 195.8 478.993C195.03 478.481 194.431 478.139 194.003 477.798C193.576 477.456 193.063 477.03 192.464 476.517C191.865 476.005 191.352 475.493 191.095 475.067C190.839 474.64 190.497 474.042 190.154 473.445C189.812 472.847 189.556 472.165 189.47 471.482C189.385 470.884 189.299 470.116 189.299 469.348C189.299 468.58 189.385 467.726 189.641 466.873C190.497 463.288 192.464 460.813 195.543 459.362C198.195 457.997 201.701 457.826 205.636 458.765Z" fill="black"/>
<path d="M170.995 447.669L155 482.492L149.27 479.846L165.264 445.024L170.995 447.669Z" fill="black"/>
<path d="M118.734 439.647L102.312 427.442C105.905 422.748 110.267 420.016 115.399 419.163C120.531 418.309 125.406 419.504 129.854 422.833C134.387 426.247 137.038 430.514 137.723 435.721C138.492 440.927 137.124 445.877 133.703 450.486C130.281 455.01 126.005 457.741 120.787 458.509C115.57 459.277 110.694 457.997 106.247 454.668C102.483 451.852 100.003 448.352 98.7198 444.17C97.4368 439.903 97.6934 435.891 99.4896 432.051L104.707 435.977C103.852 438.452 103.937 440.927 104.878 443.402C105.819 445.963 107.444 448.096 109.754 449.803C111.806 451.34 113.945 452.193 116.254 452.534C118.563 452.791 120.787 452.449 122.926 451.425C125.064 450.401 126.946 448.864 128.571 446.731C131.051 443.487 131.992 440.073 131.564 436.574C131.137 433.075 129.341 430.173 126.176 427.783C123.781 425.991 121.129 425.052 118.307 424.881C115.484 424.796 113.089 425.564 110.951 427.186L121.899 435.379L118.734 439.647Z" fill="black"/>
<path d="M53.2166 400.044L49.4531 395.18L79.8172 371.708L83.0674 375.891L73.5733 408.323L95.2131 391.595L98.9765 396.46L68.6124 419.931L65.1056 415.407L74.5142 383.572L53.2166 400.044Z" fill="black"/>
<path d="M56.2961 350.115C56.9804 351.566 57.0659 353.017 56.5527 354.468C56.0395 355.919 55.0131 357.029 53.6446 357.711C52.1906 358.394 50.651 358.48 49.2825 357.967C47.8284 357.455 46.802 356.431 46.1178 354.98C45.4335 353.529 45.348 352.078 45.8612 350.627C46.3744 349.176 47.4007 348.152 48.8548 347.384C50.3089 346.701 51.7629 346.616 53.217 347.128C54.5 347.64 55.6119 348.664 56.2961 350.115Z" fill="black"/>
</svg>
