<svg width="215" height="215" viewBox="0 0 215 215" fill="none" xmlns="http://www.w3.org/2000/svg">
<path d="M66 113.4C68 112.4 69.1 110.2 68.7 108C68.6 107.4 66.4 92.6001 62.8 82.8001C61.8 80.1001 58.8 78.6001 56.1 79.6001C55.6 79.8001 55.2 80.0001 54.8 80.3001C47.4 85.6001 41.3 88.1001 36.5 87.7001C33.6 87.4001 31 89.6001 30.7 92.5001L30.2 99.0001L19.3 104.1L9.9 85.3001L51.1 49.3001C52.2 48.3001 52.8 47.0001 52.9 45.5001C53.1 41.5001 53.1 37.5001 53.1 33.4001C78.3 35.1001 92.7 41.6001 100.8 54.7001C110.3 70.0001 111.8 94.8001 111 127.2C102.8 139.1 102 154.7 109 167.4H33.6C33.7 167 33.7 166.5 33.7 166.1C33 140.9 42 126.1 66 113.4ZM213.4 105.2L207.2 111.4L213.4 117.6C215.5 119.7 215.5 123 213.4 125.1C211.3 127.2 208 127.2 205.9 125.1L199.7 118.9L193.5 125.1C191.4 127.2 188.1 127.2 186 125.1C183.9 123 183.9 119.7 186 117.6L192.2 111.4L186 105.2C183.9 103.1 183.9 99.8001 186 97.7001C188.1 95.6001 191.4 95.6001 193.5 97.7001L199.7 103.9L205.9 97.7001C208 95.6001 211.3 95.6001 213.4 97.7001C215.5 99.8001 215.5 103.2 213.4 105.2ZM142.7 22.1001C142.7 13.7001 135.9 6.8001 127.4 6.8001C119 6.8001 112.1 13.6001 112.1 22.1001C112.1 30.5001 118.9 37.4001 127.4 37.4001C135.8 37.3001 142.7 30.5001 142.7 22.1001ZM130.2 121.3C130.2 124.2 132.6 126.6 135.5 126.6C138.4 126.6 140.8 124.2 140.8 121.3V78.8001C140.8 74.1001 144.6 70.4001 149.3 70.4001H178C188.5 70.4001 197 61.9001 197 51.4001V18.5001L205.9 27.8001C206.9 28.9001 208.3 29.4001 209.7 29.4001C212.6 29.4001 215 27.0001 215 24.1001C215 22.7001 214.5 21.4001 213.5 20.5001L195.5 1.7001C193.5 -0.399895 190.2 -0.499896 188.1 1.5001C188 1.6001 188 1.6001 187.9 1.7001L169.9 20.5001C167.9 22.6001 168 25.9001 170.1 28.0001C172.2 30.0001 175.5 29.9001 177.6 27.8001L186.5 18.5001V51.4001C186.5 56.1001 182.7 59.9001 178 59.9001H149.3C138.8 59.9001 130.3 68.4001 130.3 78.9001L130.2 121.3ZM0 205C0 203.2 1.5 201.7 3.3 201.7H139.6C141.4 201.7 142.8 203.2 142.9 205V215H0V205ZM15.3 179.5C15.3 178.6 16 177.9 16.9 177.9H126.2C127.1 177.9 127.8 178.6 127.8 179.5V191.1H15.3V179.5Z" fill="#3286DB"/>
</svg>
