<svg width="190" height="201" viewBox="0 0 190 201" fill="none" xmlns="http://www.w3.org/2000/svg">
<path d="M35.4572 152C35.5572 151.8 35.6572 151.6 35.7572 151.4C37.2572 148.9 40.0572 147.4 43.3572 147.4C45.3572 147.4 47.2572 147.9 49.0572 149L79.1572 166.7C78.1572 169.5 78.1572 172.4 79.0572 174.9L72.6572 174L35.4572 152ZM82.6572 166.6C81.0572 169.9 81.4572 173.6 83.5572 176.1C85.0572 177.9 87.3572 178.9 89.8572 179C92.4572 179 94.9572 178.1 97.0572 176.4C97.1572 176.4 97.1572 176.3 97.2572 176.3L123.557 159.5C124.357 159 125.357 159.2 125.857 160C126.357 160.8 126.157 161.8 125.357 162.3L99.1572 179.1C96.5572 181.3 93.3572 182.4 90.0572 182.4H89.9572H55.3572C55.1572 182.4 54.9572 182.4 54.7572 182.3L17.1572 167L13.3572 165.4C11.9572 164.8 10.5572 164.5 9.05717 164.5C5.15717 164.5 1.85717 166.5 0.557173 169.7C-1.24283 174.2 1.45717 179.7 6.65717 181.8L51.6572 200.1H115.457L164.457 180.1V135.1H124.957L85.6572 162.9C84.3572 163.8 83.3572 165.1 82.6572 166.6ZM55.6572 179H81.7572C81.5572 178.8 81.4572 178.6 81.2572 178.5L71.9572 177.2C71.7572 177.2 71.5572 177.1 71.3572 177L32.7572 154.3C32.7572 154.3 32.7572 154.3 32.6572 154.2H32.5572C30.8572 153.2 28.9572 152.7 27.0572 152.7C23.7572 152.7 20.9572 154.2 19.4572 156.7C18.1572 158.9 18.0572 161.5 19.0572 164.1L55.6572 179ZM167.657 127.5C167.657 125.2 169.557 123.3 171.857 123.3H185.757C188.057 123.3 189.957 125.2 189.957 127.5V187.8C189.957 190.1 188.057 192 185.757 192H171.857C170.757 192 169.657 191.6 168.857 190.8C168.057 190 167.657 189 167.657 187.8V127.5ZM170.157 178.8C170.157 183.6 174.057 187.5 178.857 187.5C183.657 187.5 187.557 183.6 187.557 178.8C187.557 174 183.657 170.1 178.857 170.1C174.057 170.1 170.157 174 170.157 178.8ZM47.0572 116.5C47.4572 116.9 47.6572 117.4 47.5572 117.9L45.4572 130L56.3572 124.3C56.5572 124.2 56.8572 124.1 57.1572 124.1C57.4572 124.1 57.6572 124.2 57.9572 124.3L68.8572 130L66.6572 118C66.5572 117.5 66.7572 116.9 67.1572 116.6L75.9572 108L63.7572 106.2C63.2572 106.1 62.7572 105.8 62.5572 105.3L57.1572 94.3L51.7572 105.3C51.5572 105.8 51.0572 106.1 50.5572 106.2L38.3572 108L47.0572 116.5ZM93.8572 119.8H149.357C152.157 119.8 154.457 117.5 154.457 114.7C154.457 111.9 152.157 109.6 149.357 109.6H93.8572C91.0572 109.6 88.7572 111.9 88.7572 114.7C88.7572 117.5 91.0572 119.8 93.8572 119.8ZM47.0572 69.4C47.4572 69.8 47.6572 70.3 47.5572 70.8L45.4572 83L56.3572 77.3C56.8572 77.1 57.3572 77.1 57.8572 77.3L68.7572 83L66.6572 70.9C66.5572 70.4 66.7572 69.8 67.1572 69.5L75.9572 60.9L63.7572 59C63.2572 58.9 62.7572 58.6 62.5572 58.1L57.1572 47.1L51.7572 58.1C51.5572 58.6 51.0572 58.9 50.5572 59L38.3572 60.8L47.0572 69.4ZM93.8572 72.7H149.357C152.157 72.7 154.457 70.4 154.457 67.6C154.457 64.8 152.157 62.5 149.357 62.5H93.8572C91.0572 62.5 88.7572 64.8 88.7572 67.6C88.7572 70.4 91.0572 72.7 93.8572 72.7ZM62.4572 11L57.0572 0L51.6572 11C51.4572 11.5 50.9572 11.8 50.4572 11.9L38.2572 13.7L47.0572 22.3C47.4572 22.7 47.6572 23.2 47.5572 23.7L45.4572 35.8L56.3572 30.1C56.8572 29.9 57.3572 29.9 57.8572 30.1L68.7572 35.8L66.6572 23.7C66.5572 23.2 66.7572 22.6 67.1572 22.3L75.9572 13.7L63.7572 11.9C63.1572 11.8 62.7572 11.5 62.4572 11ZM93.8572 25.6H149.357C152.157 25.6 154.457 23.3 154.457 20.5C154.457 17.7 152.157 15.4 149.357 15.4H93.8572C91.0572 15.4 88.7572 17.7 88.7572 20.5C88.7572 23.3 91.0572 25.6 93.8572 25.6Z" fill="#3286DB"/>
</svg>
