<svg width="203" height="203" viewBox="0 0 203 203" fill="none" xmlns="http://www.w3.org/2000/svg">
<path d="M202.425 4.3C201.725 1.8 199.525 0 196.825 0H173.025C169.725 0 167.125 2.7 167.125 5.9C167.125 9.1 169.825 11.8 173.025 11.8H186.925L158.525 43.8C120.325 87 64.0253 109.9 6.42532 104.9C3.22532 104.6 0.325318 107 0.0253176 110.3C-0.274682 113.6 2.12532 116.4 5.42532 116.7C11.0253 117.2 15.6253 117.4 21.2253 117.4C76.7253 117.4 130.425 93.5 167.425 51.6L190.825 25.2V29.5C190.825 32.8 193.525 35.4 196.725 35.4C200.025 35.4 202.625 32.7 202.625 29.5V11.8L202.425 4.3Z" fill="#3286DB"/>
<path d="M196.825 190.8H190.525V57.3003C190.525 54.8003 188.925 52.6003 186.625 51.7003C184.325 50.9003 181.625 51.5003 180.025 53.5003L176.425 57.8003C170.425 65.0003 163.825 71.8003 156.925 78.0003C155.625 79.1003 154.925 80.7003 154.925 82.4003V190.8H143.025V100.9C143.025 98.7003 141.825 96.7003 139.925 95.7003C138.025 94.7003 135.625 94.8003 133.825 96.0003C126.425 101 118.725 105.5 110.725 109.5C108.725 110.5 107.425 112.6 107.425 114.8V190.8H95.5246V124.9C95.5246 123 94.6246 121.2 93.0246 120C91.4246 118.9 89.4246 118.6 87.6246 119.3C80.1246 122 72.3246 124.3 64.5246 126.1C61.8246 126.7 59.9246 129.1 59.9246 131.9V190.8H48.0246V136C48.0246 134.3 47.3246 132.7 46.0246 131.6C44.7246 130.5 43.0246 129.9 41.4246 130.1C33.8246 131 26.0246 131.4 18.3246 131.4C15.0246 131.4 12.4246 134.1 12.4246 137.3V190.8H6.12461C2.82461 190.8 0.224609 193.5 0.224609 196.7C0.224609 200 2.92461 202.6 6.12461 202.6H196.925C200.225 202.6 202.825 199.9 202.825 196.7C202.825 193.5 200.125 190.8 196.825 190.8Z" fill="#3286DB"/>
</svg>
